<svg xmlns="http://www.w3.org/2000/svg" xml:space="preserve" version="1.1" viewBox="0 0 300 300"><path d="M267.9 242c13.8-17.1 22.9-37 27.3-59.5 2.5-12.5 2.8-25.2 2.8-38-.1-41 0-82 0-122.9 0-5.6-1.1-10.8-5-14.7-5.4-5.5-11.6-6.1-18.2-3.1-17.6 8-35.2 16.1-52.7 24.2-4.8 2.2-9.4 2.6-14.3.4-2.2-1-4.5-1.9-6.8-2.6-36.2-12.3-72.3-11.6-108 2.4-5.4 2.1-10.4 2-15.7-.4C60.2 20 43.1 12.5 25.9 4.9 22.4 3.3 18.8 2.1 15 3 6.9 4.9 2 11.9 2 21.8v134.1c0 14.3 1.9 28.3 6.2 41.9 9.8 31.4 28.5 55 53.7 72.5 34.5 24 72.2 31.9 112.3 25.6 36.9-5.8 68.7-22.9 93.7-53.9zm-63.8-87.5c13.3.1 24.2 12.3 24.3 26.8 0 14.6-11 26.7-24.2 26.8-13.3.1-24.2-11.9-24.4-26.6-.3-14.7 11-27.1 24.3-27zM96.1 208c-13.3.1-24.2-11.7-24.4-26.5-.3-14.6 11-27 24.3-27 13.2 0 24.2 12.1 24.3 26.7.1 14.5-10.9 26.7-24.2 26.8z"/></svg>